<svg width="21" height="18" viewBox="0 0 21 18" fill="none" xmlns="http://www.w3.org/2000/svg">
<path d="M16.5326 10.5109V3.48663H18.4758C19.415 3.48663 20.1816 4.3084 20.1816 5.31111V13.8458C20.1816 14.8485 19.415 15.6704 18.4758 15.6704H16.0319V17.5502C16.0319 17.6759 15.96 17.789 15.8522 17.8368C15.7443 17.8845 15.6174 17.8569 15.5359 17.7689L13.5712 15.6704H9.37345C8.43421 15.6704 7.66749 14.8485 7.66749 13.8458V13.8433H13.3915C15.1238 13.8433 16.5326 12.348 16.5326 10.5109Z" fill="#6C7C96"/>
<path d="M1.94224 0H13.3914C14.4598 0 15.334 0.933924 15.334 2.07526V10.5106C15.334 11.6521 14.4598 12.586 13.3914 12.586H6.90055L3.93051 15.7294C3.83595 15.8303 3.69384 15.8605 3.57043 15.8059C3.44693 15.7513 3.3664 15.6226 3.3664 15.4799V12.586H1.94221C0.873752 12.586 -0.000412941 11.6521 -0.000412941 10.5106V2.07526C-0.000372887 0.933924 0.873829 0 1.94224 0ZM5.63019 9.92692H12.4587V8.92164H5.63019V9.92692ZM2.87482 6.78548H12.4587V5.78028H2.87482V6.78548ZM2.87482 3.64404H12.4587V2.6388H2.87482V3.64404Z" fill="#6C7C96"/>
</svg>
