<svg width="31" height="31" viewBox="0 0 31 31" fill="none" xmlns="http://www.w3.org/2000/svg">
<g clip-path="url(#clip0_225_134)">
<path d="M6.71667 0C3.0314 0 0 3.0314 0 6.71667V24.2833C0 27.9686 3.0314 31 6.71667 31H15.5815C19.0047 31 21.8621 28.384 22.2514 25.0583H18.0542C17.7383 26.1258 16.7764 26.8667 15.5815 26.8667H6.71667C5.24976 26.8667 4.13333 25.7502 4.13333 24.2833V6.71667C4.13333 5.24976 5.24976 4.13333 6.71667 4.13333H15.5815C16.7764 4.13333 17.7383 4.87422 18.0542 5.94167H22.2514C21.8621 2.61604 19.0047 0 15.5815 0H6.71667Z" fill="white"/>
<path d="M24.638 9.29996C24.3666 9.29995 24.0978 9.35339 23.8471 9.45724C23.5963 9.56109 23.3685 9.71332 23.1766 9.90522C22.9847 10.0971 22.8324 10.325 22.7285 10.5757C22.6247 10.8265 22.5712 11.0952 22.5712 11.3666C22.5712 11.638 22.6247 11.9068 22.7285 12.1575C22.8324 12.4083 22.9847 12.6361 23.1766 12.828L23.7818 13.4333H8.45924C7.91113 13.4333 7.38547 13.651 6.99789 14.0386C6.61032 14.4262 6.39258 14.9518 6.39258 15.5C6.39258 16.0481 6.61032 16.5737 6.99789 16.9613C7.38547 17.3489 7.91113 17.5666 8.45924 17.5666H23.7818L23.1766 18.1719C22.9847 18.3638 22.8324 18.5916 22.7285 18.8424C22.6247 19.0931 22.5712 19.3619 22.5712 19.6333C22.5712 19.9047 22.6247 20.1735 22.7285 20.4242C22.8324 20.6749 22.9847 20.9028 23.1766 21.0947C23.3685 21.2866 23.5963 21.4389 23.8471 21.5427C24.0978 21.6466 24.3666 21.7 24.638 21.7C24.9094 21.7 25.1781 21.6466 25.4289 21.5427C25.6796 21.4389 25.9075 21.2866 26.0994 21.0947L29.8602 17.3338C30.2008 17.1629 30.4875 16.9012 30.6887 16.5776C30.8898 16.2539 30.9976 15.881 31 15.5C30.9996 15.1131 30.8905 14.7341 30.6852 14.4061C30.48 14.0782 30.1868 13.8144 29.8391 13.6449L26.0994 9.90522C25.9075 9.71332 25.6796 9.56109 25.4289 9.45724C25.1781 9.35339 24.9094 9.29995 24.638 9.29996Z" fill="white"/>
</g>
<defs>
<clipPath id="clip0_225_134">
<rect width="31" height="31" fill="white"/>
</clipPath>
</defs>
</svg>
