<svg width="30" height="30" viewBox="0 0 30 30" fill="none" xmlns="http://www.w3.org/2000/svg">
<path d="M29.2167 26.704V29.1983L9.23585 29.1823L12.0324 26.704H29.2167ZM24.7309 0.75C25.71 0.75 26.2183 0.826 27.5524 1.94403C28.9145 3.08462 29.1597 3.97406 29.2167 4.96444C29.2773 6.03022 28.9175 7.32519 27.9176 8.33753L8.94075 27.3144C8.632 27.5964 8.56728 27.5816 8.36066 27.6427L2.28897 29.1609C1.41497 29.3385 0.594408 28.5381 0.774908 27.6469L2.29313 21.5752C2.3525 21.3769 2.3721 21.2682 2.62147 20.9957C8.97222 14.6443 15.206 8.17425 21.6749 1.94403C22.5186 1.15137 23.7513 0.75 24.7309 0.75ZM5.50828 21.6393L4.63131 22.5163L3.7015 26.2343L7.41956 25.3045C7.71228 25.0124 8.00441 24.7209 8.29772 24.4293L5.50828 21.6393ZM23.4253 9.42409L20.5741 6.5735L7.21888 19.9287L10.0166 22.7271C14.4988 18.3048 19.0393 13.939 23.4253 9.42409ZM25.1032 7.68084C25.4702 7.29609 25.8359 6.91016 26.2005 6.52244C27.1938 5.43825 26.4635 3.28413 24.8307 3.2105C24.7974 3.20931 24.7642 3.20931 24.7309 3.20931C24.2197 3.21881 23.7222 3.43019 23.3582 3.78941L22.2853 4.86291L25.1032 7.68084Z" fill="white"/>
</svg>
