<svg width="34" height="34" viewBox="0 0 34 34" fill="none" xmlns="http://www.w3.org/2000/svg">
<path d="M14.1099 0C8.21828 0 3.3999 4.81998 3.3999 10.71C3.3999 16.5999 8.21828 21.4199 14.1099 21.4199C20.0015 21.4199 24.8199 16.5999 24.8199 10.71C24.8199 4.81998 20.0015 0 14.1099 0ZM14.1099 4.07873C17.7942 4.07873 20.7386 7.02266 20.7386 10.71C20.7386 14.3972 17.7942 17.3412 14.1099 17.3412C10.4256 17.3412 7.48109 14.3972 7.48109 10.71C7.48109 7.02266 10.4256 4.07873 14.1099 4.07873Z" fill="white"/>
<path d="M20.2307 14.7922C19.9627 14.7921 19.6973 14.8448 19.4497 14.9472C19.2021 15.0496 18.9771 15.1997 18.7876 15.3891C18.4048 15.7714 18.1896 16.2901 18.1895 16.8309C18.1893 17.3718 18.4041 17.8906 18.7867 18.2732L30.5154 30.002C30.898 30.3846 31.4169 30.5996 31.9581 30.5997C32.4993 30.5999 33.0184 30.3852 33.4012 30.0028C33.7841 29.6205 33.9992 29.1019 33.9994 28.561C33.9996 28.0201 33.7848 27.5013 33.4022 27.1187L21.6734 15.39C21.2909 15.0074 20.7719 14.7924 20.2307 14.7922Z" fill="white"/>
<path d="M18.6935 11.4744C18.6265 11.4744 18.5601 11.4613 18.4982 11.4356C18.4363 11.41 18.3801 11.3725 18.3327 11.3251C18.2853 11.2778 18.2478 11.2216 18.2221 11.1597C18.1965 11.0979 18.1833 11.0316 18.1833 10.9646C18.1833 9.61501 17.5555 8.34348 16.4842 7.52294C15.413 6.7024 14.022 6.4276 12.7193 6.7791C12.5887 6.81435 12.4494 6.7963 12.3321 6.72893C12.2148 6.66155 12.1291 6.55037 12.0938 6.41983C12.0763 6.35519 12.0718 6.28775 12.0804 6.22134C12.089 6.15494 12.1107 6.09089 12.144 6.03284C12.1774 5.9748 12.2219 5.92389 12.275 5.88303C12.3281 5.84217 12.3887 5.81216 12.4534 5.79471C14.062 5.36067 15.7822 5.70055 17.1049 6.71364C18.4276 7.72672 19.2036 9.29872 19.2036 10.9646C19.2036 11.0998 19.1499 11.2295 19.0542 11.3251C18.9585 11.4207 18.8288 11.4744 18.6935 11.4744Z" fill="white"/>
</svg>
