<svg width="36" height="38" viewBox="0 0 36 38" fill="none" xmlns="http://www.w3.org/2000/svg">
<path d="M17.999 -0.00224304C16.3196 -0.00224304 14.7108 0.37833 13.6509 1.58471C12.591 2.79109 12.557 4.07732 12.4956 4.85992C12.4343 5.64251 12.3833 6.12965 12.265 6.43141C12.1467 6.73316 12.0491 6.9637 11.309 7.39174C10.5688 7.81978 10.321 7.78892 10.0009 7.74067C9.68089 7.69242 9.2344 7.49333 8.52715 7.15524C7.81989 6.81715 6.69055 6.20342 5.11762 6.51972C3.54469 6.83602 2.41125 8.04126 1.57152 9.49819C0.731793 10.9551 0.256629 12.5411 0.769641 14.0637C1.28265 15.5864 2.37774 16.2593 3.02366 16.7038C3.66957 17.1483 4.06501 17.436 4.26675 17.6895C4.46848 17.943 4.61914 18.1428 4.61914 18.9989C4.61914 19.855 4.46848 20.0548 4.26675 20.3083C4.06501 20.5618 3.66957 20.8495 3.02366 21.294C2.37774 21.7385 1.28265 22.4113 0.769641 23.934C0.256629 25.4567 0.731793 27.0426 1.57152 28.4996C2.41125 29.9565 3.54469 31.1617 5.11762 31.478C6.69055 31.7943 7.81989 31.1806 8.52715 30.8425C9.2344 30.5044 9.68089 30.3053 10.0009 30.2571C10.321 30.2088 10.5688 30.178 11.309 30.606C12.0491 31.0341 12.1467 31.2646 12.265 31.5663C12.3833 31.8681 12.4343 32.3552 12.4956 33.1378C12.557 33.9204 12.591 35.2067 13.6509 36.413C14.7108 37.6194 16.3196 38 17.999 38C19.6785 38 21.2872 37.6194 22.3471 36.413C23.407 35.2067 23.4411 33.9204 23.5024 33.1378C23.5637 32.3552 23.6148 31.8681 23.7331 31.5663C23.8514 31.2646 23.949 31.0341 24.6891 30.606C25.4292 30.178 25.6771 30.2088 25.9971 30.2571C26.3171 30.3053 26.7636 30.5044 27.4709 30.8425C28.1781 31.1806 29.3075 31.7943 30.8804 31.478C32.4533 31.1617 33.5868 29.9565 34.4265 28.4996C35.2662 27.0426 35.7414 25.4567 35.2284 23.934C34.7154 22.4113 33.6203 21.7385 32.9744 21.294C32.3285 20.8495 31.933 20.5618 31.7313 20.3083C31.5296 20.0548 31.3789 19.855 31.3789 18.9989C31.3789 18.1428 31.5296 17.943 31.7313 17.6895C31.933 17.436 32.3285 17.1483 32.9744 16.7038C33.6203 16.2593 34.7154 15.5864 35.2284 14.0637C35.7414 12.5411 35.2662 10.9551 34.4265 9.49819C33.5868 8.04126 32.4533 6.83602 30.8804 6.51972C29.3075 6.20342 28.1781 6.81715 27.4709 7.15524C26.7636 7.49333 26.3171 7.69242 25.9971 7.74067C25.6771 7.78892 25.4292 7.81978 24.6891 7.39174C23.949 6.9637 23.8514 6.73316 23.7331 6.43141C23.6148 6.12965 23.5637 5.64251 23.5024 4.85992C23.4411 4.07732 23.407 2.79109 22.3471 1.58471C21.2872 0.37833 19.6785 -0.00224304 17.999 -0.00224304ZM18.0005 10.7648C22.5728 10.7648 26.2331 14.4244 26.2331 18.9989C26.2331 23.5734 22.5728 27.233 18.0005 27.233C13.4282 27.233 9.76789 23.5734 9.76789 18.9989C9.76789 14.4244 13.4282 10.7648 18.0005 10.7648Z" fill="white"/>
<path d="M17.999 13.9332C15.2241 13.9332 12.9326 16.226 12.9326 18.9989C12.9326 21.7717 15.2241 24.0646 17.999 24.0646C20.774 24.0646 23.0654 21.7717 23.0654 18.9989C23.0654 16.226 20.774 13.9332 17.999 13.9332Z" fill="white"/>
</svg>
